<svg xmlns="http://www.w3.org/2000/svg" width="1920" height="1080"><path d="M-426,-416L-23,-399L1857,-377Z" fill="#e4e4e4" stroke="#e4e4e4" stroke-width="1.51"/><path d="M351,-318L995,-264L1857,-377Z" fill="#f2f4f9" stroke="#f2f4f9" stroke-width="1.51"/><path d="M-23,-399L351,-318L1857,-377Z" fill="#eceef0" stroke="#eceef0" stroke-width="1.51"/><path d="M995,-264L1443,-252L1857,-377Z" fill="#ebedef" stroke="#ebedef" stroke-width="1.51"/><path d="M2160,732L2082,1123L2234,1194Z" fill="#f0f2f5" stroke="#f0f2f5" stroke-width="1.51"/><path d="M2160,732L2234,1194L2359,489Z" fill="#eef1f4" stroke="#eef1f4" stroke-width="1.51"/><path d="M2071,325L2359,489L2372,229Z" fill="#eaecee" stroke="#eaecee" stroke-width="1.51"/><path d="M2228,-99L2071,325L2372,229Z" fill="#e5e5e6" stroke="#e5e5e6" stroke-width="1.51"/><path d="M2333,-293L2228,-99L2372,229Z" fill="#eeeeee" stroke="#eeeeee" stroke-width="1.51"/><path d="M2086,722L2160,732L2359,489Z" fill="#f2f5f9" stroke="#f2f5f9" stroke-width="1.51"/><path d="M2071,325L2086,722L2359,489Z" fill="#f2f6fa" stroke="#f2f6fa" stroke-width="1.51"/><path d="M1941,-141L2228,-99L2333,-293Z" fill="#f1f2f3" stroke="#f1f2f3" stroke-width="1.51"/><path d="M1857,-377L1941,-141L2333,-293Z" fill="#f4f5f6" stroke="#f4f5f6" stroke-width="1.51"/><path d="M1443,-252L1689,-298L1857,-377Z" fill="#f0f1f3" stroke="#f0f1f3" stroke-width="1.51"/><path d="M2071,325L1955,653L2086,722Z" fill="#f2f6fb" stroke="#f2f6fb" stroke-width="1.51"/><path d="M2086,722L2082,1123L2160,732Z" fill="#eceff2" stroke="#eceff2" stroke-width="1.51"/><path d="M2082,1123L1948,1449L2199,1409Z" fill="#f5f7f9" stroke="#f5f7f9" stroke-width="1.51"/><path d="M1941,-141L2071,325L2228,-99Z" fill="#e9eaeb" stroke="#e9eaeb" stroke-width="1.51"/><path d="M2082,1123L2199,1409L2234,1194Z" fill="#f5f7f9" stroke="#f5f7f9" stroke-width="1.51"/><path d="M1941,-141L1742,131L2071,325Z" fill="#e5e6e8" stroke="#e5e6e8" stroke-width="1.51"/><path d="M1790,840L2082,1123L2086,722Z" fill="#eceff2" stroke="#eceff2" stroke-width="1.51"/><path d="M1687,625L1955,653L2071,325Z" fill="#f1f5fb" stroke="#f1f5fb" stroke-width="1.51"/><path d="M1790,840L1641,1033L2082,1123Z" fill="#eceff3" stroke="#eceff3" stroke-width="1.51"/><path d="M1718,1315L1948,1449L2082,1123Z" fill="#f4f6f9" stroke="#f4f6f9" stroke-width="1.51"/><path d="M1955,653L1790,840L2086,722Z" fill="#eef2f6" stroke="#eef2f6" stroke-width="1.51"/><path d="M1641,1033L1718,1315L2082,1123Z" fill="#eff2f6" stroke="#eff2f6" stroke-width="1.51"/><path d="M1742,131L1687,625L2071,325Z" fill="#e7eaed" stroke="#e7eaed" stroke-width="1.51"/><path d="M1179,1417L874,1497L1507,1472Z" fill="#f1f3f8" stroke="#f1f3f8" stroke-width="1.51"/><path d="M1624,-71L1742,131L1941,-141Z" fill="#e8e9eb" stroke="#e8e9eb" stroke-width="1.51"/><path d="M1857,-377L1689,-298L1941,-141Z" fill="#f2f3f5" stroke="#f2f3f5" stroke-width="1.51"/><path d="M1718,1315L1507,1472L1948,1449Z" fill="#f1f4f6" stroke="#f1f4f6" stroke-width="1.51"/><path d="M1687,625L1790,840L1955,653Z" fill="#edf0f6" stroke="#edf0f6" stroke-width="1.51"/><path d="M1689,-298L1624,-71L1941,-141Z" fill="#edeff0" stroke="#edeff0" stroke-width="1.51"/><path d="M1349,300L1687,625L1742,131Z" fill="#e3e6e9" stroke="#e3e6e9" stroke-width="1.51"/><path d="M1687,625L1479,1005L1790,840Z" fill="#e7ebef" stroke="#e7ebef" stroke-width="1.51"/><path d="M1479,1005L1641,1033L1790,840Z" fill="#e8ecef" stroke="#e8ecef" stroke-width="1.51"/><path d="M351,-318L421,-291L995,-264Z" fill="#e5e6e7" stroke="#e5e6e7" stroke-width="1.51"/><path d="M1349,300L1296,500L1687,625Z" fill="#e6ebf0" stroke="#e6ebf0" stroke-width="1.51"/><path d="M1350,755L1479,1005L1687,625Z" fill="#e6eaee" stroke="#e6eaee" stroke-width="1.51"/><path d="M1497,-161L1624,-71L1689,-298Z" fill="#ebecef" stroke="#ebecef" stroke-width="1.51"/><path d="M1641,1033L1479,1005L1718,1315Z" fill="#ebeff2" stroke="#ebeff2" stroke-width="1.51"/><path d="M1624,-71L1349,300L1742,131Z" fill="#dee0e2" stroke="#dee0e2" stroke-width="1.51"/><path d="M1479,1005L1507,1472L1718,1315Z" fill="#edf0f4" stroke="#edf0f4" stroke-width="1.51"/><path d="M1296,500L1350,755L1687,625Z" fill="#e8edf2" stroke="#e8edf2" stroke-width="1.51"/><path d="M1443,-252L1497,-161L1689,-298Z" fill="#ecedf0" stroke="#ecedf0" stroke-width="1.51"/><path d="M1497,-161L1349,300L1624,-71Z" fill="#e2e3e5" stroke="#e2e3e5" stroke-width="1.51"/><path d="M1150,11L1349,300L1497,-161Z" fill="#e1e3e5" stroke="#e1e3e5" stroke-width="1.51"/><path d="M1479,1005L1179,1417L1507,1472Z" fill="#ecf0f3" stroke="#ecf0f3" stroke-width="1.51"/><path d="M594,1461L296,1521L874,1497Z" fill="#e7e8e9" stroke="#e7e8e9" stroke-width="1.51"/><path d="M1014,1071L1179,1417L1479,1005Z" fill="#edf1f6" stroke="#edf1f6" stroke-width="1.51"/><path d="M1101,928L1014,1071L1479,1005Z" fill="#eaedf2" stroke="#eaedf2" stroke-width="1.51"/><path d="M1443,-252L1150,11L1497,-161Z" fill="#e8ebed" stroke="#e8ebed" stroke-width="1.51"/><path d="M1350,755L1101,928L1479,1005Z" fill="#e5e9ee" stroke="#e5e9ee" stroke-width="1.51"/><path d="M995,-264L1150,11L1443,-252Z" fill="#eceef1" stroke="#eceef1" stroke-width="1.51"/><path d="M1039,258L1296,500L1349,300Z" fill="#e3e7ec" stroke="#e3e7ec" stroke-width="1.51"/><path d="M1150,11L1039,258L1349,300Z" fill="#dde0e3" stroke="#dde0e3" stroke-width="1.51"/><path d="M1296,500L1122,613L1350,755Z" fill="#ebf0f6" stroke="#ebf0f6" stroke-width="1.51"/><path d="M1122,613L1101,928L1350,755Z" fill="#e9edf3" stroke="#e9edf3" stroke-width="1.51"/><path d="M1039,258L1122,613L1296,500Z" fill="#eaeff5" stroke="#eaeff5" stroke-width="1.51"/><path d="M421,-291L902,-217L995,-264Z" fill="#ebecef" stroke="#ebecef" stroke-width="1.51"/><path d="M767,771L1101,928L1122,613Z" fill="#ebf1f7" stroke="#ebf1f7" stroke-width="1.51"/><path d="M1039,258L782,579L1122,613Z" fill="#edf3fa" stroke="#edf3fa" stroke-width="1.51"/><path d="M910,-3L1039,258L1150,11Z" fill="#e3e6ea" stroke="#e3e6ea" stroke-width="1.51"/><path d="M995,-264L910,-3L1150,11Z" fill="#ebeef2" stroke="#ebeef2" stroke-width="1.51"/><path d="M1014,1071L774,1226L1179,1417Z" fill="#f2f6fc" stroke="#f2f6fc" stroke-width="1.51"/><path d="M774,1226L874,1497L1179,1417Z" fill="#f3f6fb" stroke="#f3f6fb" stroke-width="1.51"/><path d="M902,-217L910,-3L995,-264Z" fill="#eef0f4" stroke="#eef0f4" stroke-width="1.51"/><path d="M910,-3L883,201L1039,258Z" fill="#e1e4e8" stroke="#e1e4e8" stroke-width="1.51"/><path d="M782,579L767,771L1122,613Z" fill="#ecf2f8" stroke="#ecf2f8" stroke-width="1.51"/><path d="M883,201L782,579L1039,258Z" fill="#e5e9ee" stroke="#e5e9ee" stroke-width="1.51"/><path d="M767,771L1014,1071L1101,928Z" fill="#ebf0f6" stroke="#ebf0f6" stroke-width="1.51"/><path d="M767,771L774,1226L1014,1071Z" fill="#eaedf2" stroke="#eaedf2" stroke-width="1.51"/><path d="M767,771L496,1129L774,1226Z" fill="#e4e7ea" stroke="#e4e7ea" stroke-width="1.51"/><path d="M774,1226L594,1461L874,1497Z" fill="#eceef1" stroke="#eceef1" stroke-width="1.51"/><path d="M469,69L548,245L883,201Z" fill="#d5d6d7" stroke="#d5d6d7" stroke-width="1.51"/><path d="M548,245L782,579L883,201Z" fill="#dfe1e6" stroke="#dfe1e6" stroke-width="1.51"/><path d="M421,-291L469,69L902,-217Z" fill="#e1e2e3" stroke="#e1e2e3" stroke-width="1.51"/><path d="M902,-217L469,69L910,-3Z" fill="#e4e5e7" stroke="#e4e5e7" stroke-width="1.51"/><path d="M469,69L883,201L910,-3Z" fill="#dddfe1" stroke="#dddfe1" stroke-width="1.51"/><path d="M463,756L496,1129L767,771Z" fill="#dcdfe2" stroke="#dcdfe2" stroke-width="1.51"/><path d="M548,245L431,421L782,579Z" fill="#dde0e3" stroke="#dde0e3" stroke-width="1.51"/><path d="M463,756L767,771L782,579Z" fill="#e3e7eb" stroke="#e3e7eb" stroke-width="1.51"/><path d="M431,421L463,756L782,579Z" fill="#e2e5e9" stroke="#e2e5e9" stroke-width="1.51"/><path d="M496,1129L594,1461L774,1226Z" fill="#e6e8eb" stroke="#e6e8eb" stroke-width="1.51"/><path d="M431,421L266,577L463,756Z" fill="#e1e4e8" stroke="#e1e4e8" stroke-width="1.51"/><path d="M496,1129L286,1234L594,1461Z" fill="#e2e3e4" stroke="#e2e3e4" stroke-width="1.51"/><path d="M286,1234L296,1521L594,1461Z" fill="#e5e6e6" stroke="#e5e6e6" stroke-width="1.51"/><path d="M421,-291L153,-115L469,69Z" fill="#dfdfdf" stroke="#dfdfdf" stroke-width="1.51"/><path d="M463,756L244,744L496,1129Z" fill="#dbdddf" stroke="#dbdddf" stroke-width="1.51"/><path d="M469,69L233,216L548,245Z" fill="#d1d1d1" stroke="#d1d1d1" stroke-width="1.51"/><path d="M233,216L431,421L548,245Z" fill="#d6d6d7" stroke="#d6d6d7" stroke-width="1.51"/><path d="M244,744L34,932L286,1234Z" fill="#e4e5e7" stroke="#e4e5e7" stroke-width="1.51"/><path d="M351,-318L153,-115L421,-291Z" fill="#e5e5e5" stroke="#e5e5e5" stroke-width="1.51"/><path d="M244,744L286,1234L496,1129Z" fill="#e0e2e4" stroke="#e0e2e4" stroke-width="1.51"/><path d="M266,577L244,744L463,756Z" fill="#e1e4e7" stroke="#e1e4e7" stroke-width="1.51"/><path d="M153,-115L233,216L469,69Z" fill="#dadada" stroke="#dadada" stroke-width="1.51"/><path d="M233,216L266,577L431,421Z" fill="#dee0e2" stroke="#dee0e2" stroke-width="1.51"/><path d="M286,1234L9,1499L296,1521Z" fill="#ebebec" stroke="#ebebec" stroke-width="1.51"/><path d="M-23,-399L153,-115L351,-318Z" fill="#eaeaea" stroke="#eaeaea" stroke-width="1.51"/><path d="M-48,191L-117,513L233,216Z" fill="#e1e2e3" stroke="#e1e2e3" stroke-width="1.51"/><path d="M153,-115L-49,14L233,216Z" fill="#e0e0e0" stroke="#e0e0e0" stroke-width="1.51"/><path d="M233,216L-117,513L266,577Z" fill="#e5e6e9" stroke="#e5e6e9" stroke-width="1.51"/><path d="M34,932L-148,1191L286,1234Z" fill="#ebecee" stroke="#ebecee" stroke-width="1.51"/><path d="M-148,1191L9,1499L286,1234Z" fill="#eeeff0" stroke="#eeeff0" stroke-width="1.51"/><path d="M-49,14L-48,191L233,216Z" fill="#dedede" stroke="#dedede" stroke-width="1.51"/><path d="M-117,513L244,744L266,577Z" fill="#e9ebef" stroke="#e9ebef" stroke-width="1.51"/><path d="M-117,513L34,932L244,744Z" fill="#e8eaed" stroke="#e8eaed" stroke-width="1.51"/><path d="M-23,-399L-49,14L153,-115Z" fill="#ebebeb" stroke="#ebebeb" stroke-width="1.51"/><path d="M-383,-110L-49,14L-23,-399Z" fill="#efefef" stroke="#efefef" stroke-width="1.51"/><path d="M-148,1191L-246,1361L9,1499Z" fill="#f3f3f4" stroke="#f3f3f4" stroke-width="1.51"/><path d="M-307,1069L-148,1191L34,932Z" fill="#eff0f2" stroke="#eff0f2" stroke-width="1.51"/><path d="M-318,747L-307,1069L34,932Z" fill="#eceef0" stroke="#eceef0" stroke-width="1.51"/><path d="M-117,513L-318,747L34,932Z" fill="#edeff2" stroke="#edeff2" stroke-width="1.51"/><path d="M-459,226L-117,513L-48,191Z" fill="#e6e7e8" stroke="#e6e7e8" stroke-width="1.51"/><path d="M-426,-416L-383,-110L-23,-399Z" fill="#f5f5f5" stroke="#f5f5f5" stroke-width="1.51"/><path d="M-383,-110L-459,226L-49,14Z" fill="#e9e9e9" stroke="#e9e9e9" stroke-width="1.51"/><path d="M-49,14L-459,226L-48,191Z" fill="#e3e3e3" stroke="#e3e3e3" stroke-width="1.51"/><path d="M-307,1069L-420,615L-246,1361Z" fill="#f0f2f4" stroke="#f0f2f4" stroke-width="1.51"/><path d="M-420,615L-318,747L-117,513Z" fill="#f2f4f8" stroke="#f2f4f8" stroke-width="1.51"/><path d="M-459,226L-420,615L-117,513Z" fill="#f0f2f5" stroke="#f0f2f5" stroke-width="1.51"/><path d="M-307,1069L-246,1361L-148,1191Z" fill="#f4f5f6" stroke="#f4f5f6" stroke-width="1.51"/><path d="M-318,747L-420,615L-307,1069Z" fill="#eff1f4" stroke="#eff1f4" stroke-width="1.51"/><path d="M-426,-416L-459,226L-383,-110Z" fill="#f2f2f2" stroke="#f2f2f2" stroke-width="1.51"/></svg>